<svg width="63" height="63" viewBox="0 0 63 63" fill="none" xmlns="http://www.w3.org/2000/svg">
<path d="M58.625 3.85001H48.9125C48.7375 3.85001 48.65 3.93751 48.5625 4.02501C48.475 4.11251 48.475 4.28751 48.475 4.46251L50.4 12.25C50.4875 12.425 50.6625 12.6 50.8375 12.6H56.6125C56.875 12.6 57.05 12.425 57.05 12.25L58.975 4.46251C58.975 4.28751 58.975 4.20001 58.8875 4.02501C58.8875 3.93751 58.8 3.85001 58.625 3.85001ZM56.35 11.6375H51.275L49.6125 4.81251H58.1L56.35 11.6375Z" fill="#2A76BC"/>
<path d="M50.925 23.275H28.6125L24.5875 19.25V12.5125C24.5875 12.3375 24.5875 12.1625 24.5 11.9875C24.2375 12.25 23.8875 12.425 23.5375 12.6V19.425C23.5375 19.5125 23.625 19.6875 23.7125 19.775L28.0875 24.15C28.175 24.2375 28.2625 24.325 28.4375 24.325H50.925C51.7125 24.325 52.4125 24.9375 52.4125 25.8125C52.4125 26.6 51.8 27.3 50.925 27.3H35.35C35.0875 27.3 34.825 27.475 34.825 27.825V37.0125H28V28.6125C28 28.525 27.9125 28.35 27.825 28.2625L21 21.4375C20.7375 21.175 20.5625 20.825 20.5625 20.3875V12.775C20.2125 12.6 19.95 12.425 19.6 12.1625C19.6 12.3375 19.5125 12.5125 19.5125 12.6875V20.475C19.5125 21.0875 19.775 21.7 20.2125 22.225L26.95 28.9625V37.625V46.8125H23.5375C22.225 46.8125 21.0875 47.8625 21.0875 49.2625C21.0875 50.575 22.1375 51.625 23.45 51.7125L21 54.075C20.5625 54.5125 20.3 55.125 20.3 55.825C20.3 56.525 20.5625 57.05 21 57.575C21.4375 58.0125 22.05 58.275 22.75 58.275C23.45 58.275 23.975 58.0125 24.5 57.575L30.625 51.45H33.5125C34.825 51.45 35.9625 50.4 35.9625 49V37.275V28.0875H51.0125C52.325 28.0875 53.4625 27.0375 53.4625 25.6375C53.2875 24.325 52.2375 23.275 50.925 23.275ZM22.3125 48.9125C22.3125 48.125 22.925 47.425 23.8 47.425H27.125V47.8625L24.675 50.3125H23.7125C22.925 50.4 22.3125 49.7875 22.3125 48.9125ZM34.9125 46.9875V48.9125C34.9125 49.7 34.3 50.4 33.425 50.4H31.5C31.85 49.9625 32.025 49.4375 32.025 48.9125V47.425V46.4625V41.125C32.025 40.8625 31.85 40.6 31.5 40.6C31.2375 40.6 30.975 40.775 30.975 41.125V46.4625V47.425V48.9125C30.975 49.2625 30.8 49.7 30.5375 49.9625L30.1 50.4L29.1375 51.3625L23.7125 56.7875C23.1875 57.3125 22.225 57.3125 21.7 56.7875C21.4375 56.525 21.2625 56.175 21.2625 55.7375C21.2625 55.3 21.4375 54.95 21.7 54.6875L25.1125 51.275L26.075 50.3125L28 48.3875C28.0875 48.3 28.175 48.2125 28.175 48.0375V47.425V46.4625V37.7125H35V46.9875H34.9125Z" fill="black"/>
<path d="M31.5 22.3125C33.3375 22.3125 34.9125 20.825 34.9125 18.9C34.9125 16.975 33.425 15.4875 31.5 15.4875C29.6625 15.4875 28.0875 16.975 28.0875 18.9C28.0875 20.825 29.6625 22.3125 31.5 22.3125ZM31.5 16.45C32.8125 16.45 33.95 17.5 33.95 18.9C33.95 20.2125 32.9 21.35 31.5 21.35C30.1 21.35 29.05 20.3 29.05 18.9C29.05 17.5875 30.1875 16.45 31.5 16.45Z" fill="black"/>
<path d="M22.1375 12.95C22.6625 12.95 23.1875 12.8625 23.625 12.6C23.975 12.425 24.2375 12.25 24.5875 11.9875C25.2 11.375 25.6375 10.5 25.6375 9.5375C25.6375 7.7 24.15 6.125 22.225 6.125C20.3 6.125 18.8125 7.6125 18.8125 9.5375C18.8125 10.5 19.1625 11.375 19.8625 11.9875C20.125 12.25 20.475 12.425 20.825 12.6C21.0875 12.775 21.6125 12.95 22.1375 12.95ZM20.2125 11.025C19.8625 10.5875 19.6875 10.15 19.6875 9.5375C19.6875 8.225 20.7375 7.0875 22.1375 7.0875C23.5375 7.0875 24.5875 8.1375 24.5875 9.5375C24.5875 10.0625 24.4125 10.5875 24.0625 11.025C23.8875 11.2875 23.625 11.4625 23.3625 11.6375C23.0125 11.8125 22.575 11.9875 22.1375 11.9875C21.7 11.9875 21.2625 11.9 20.9125 11.6375C20.65 11.4625 20.3875 11.2875 20.2125 11.025Z" fill="#EE2B2F"/>
</svg>
