<svg width="63" height="63" viewBox="0 0 63 63" fill="none" xmlns="http://www.w3.org/2000/svg">
<path d="M25.4 16.5C27.3 16.5 28.9 14.9 28.9 13C28.9 11.1 27.3 9.5 25.4 9.5C23.5 9.5 21.9 11.1 21.9 13C21.9 14.9 23.4 16.5 25.4 16.5ZM25.4 10.5C26.8 10.5 27.9 11.6 27.9 13C27.9 14.4 26.8 15.5 25.4 15.5C24 15.5 22.9 14.4 22.9 13C22.9 11.6 24 10.5 25.4 10.5Z" fill="black"/>
<path d="M42.9 22V21.5H34.7C34.6 21.6 34.6 21.7 34.5 21.8L34.2 22L33.7 22.5H43.4C43.1 22.5 42.9 22.3 42.9 22Z" fill="black"/>
<path d="M35.8 18.5H42.9V18C42.9 17.7 43.1 17.5 43.4 17.5H35.6C35.6 17.7 35.7 17.8 35.7 18C35.7 18.2 35.8 18.3 35.8 18.5Z" fill="black"/>
<path d="M45.4 17.5H43.4C43.1 17.5 42.9 17.7 42.9 18V18.5V21.5V22C42.9 22.3 43.1 22.5 43.4 22.5H45C45.2 23.6 46.2 24.5 47.4 24.5C48.8 24.5 49.9 23.4 49.9 22C49.9 19.5 47.9 17.5 45.4 17.5ZM45.9 22.4C45.9 22.3 45.8 22.1 45.8 22C45.8 22 45.8 22 45.8 21.9C45.8 21.7 45.6 21.5 45.3 21.5H43.8V18.5H45.3C45.4 18.5 45.5 18.5 45.6 18.5C46.1 18.5 46.6 18.7 47 18.9C47.3 19.1 47.5 19.2 47.8 19.4C48.4 20 48.8 20.9 48.8 21.9C48.8 22.7 48.1 23.4 47.3 23.4C46.7 23.5 46.1 23.1 45.9 22.4Z" fill="#EE2B2F"/>
<path d="M32.3 23.2L32 22.8L29.9 24.9L29.4 25.4L28.9 25.9L28.1 26.7C27.5 27.3 26.6 27.3 26 26.7L21.9 22.6L21.4 22.1L21.3 22L20.4 21.1C20.3 21 20.2 20.8 20.1 20.6C20 20.5 20 20.3 20 20.1C20 20.1 20 20.1 20 20C20 19.2 20.7 18.5 21.5 18.5H30.7C30.6 18.3 30.5 18.2 30.5 18C30.4 17.8 30.4 17.7 30.4 17.5H21.6C20.2 17.5 19.1 18.6 19.1 20C19.1 20.2 19.1 20.3 19.1 20.5C19.1 20.6 19.1 20.6 19.1 20.6C19.1 20.7 19.2 20.8 19.2 20.9C19.2 21 19.2 21 19.3 21.1C19.3 21.2 19.4 21.3 19.4 21.4L19.5 21.5C19.6 21.6 19.6 21.7 19.7 21.7C19.7 21.7 19.7 21.7 19.8 21.8L21 23V32V43L14.7 49.3C13.7 50.3 13.7 51.9 14.7 52.8C15.2 53.3 15.8 53.5 16.5 53.5C17.1 53.5 17.8 53.3 18.3 52.8L25.4 45.7C25.9 45.2 26.1 44.6 26.1 43.9V36.4H26.6L32.2 42V51C32.2 52.4 33.3 53.5 34.7 53.5C36.1 53.5 37.2 52.4 37.2 51V41C37.2 40.3 36.9 39.7 36.5 39.2L29.9 33V32V26.3L33.1 23.1C33 23.2 32.9 23.2 32.8 23.2C32.6 23.3 32.4 23.3 32.3 23.2ZM35.9 51.1C35.9 51.9 35.2 52.6 34.4 52.6C33.6 52.6 32.9 51.9 32.9 51.1V41.9C32.9 41.8 32.8 41.6 32.8 41.5L26.9 35.6C26.8 35.5 26.7 35.5 26.5 35.5H25.3C25 35.5 24.8 35.7 24.8 36V44C24.8 44.4 24.6 44.8 24.4 45.1L17.3 52.2C16.7 52.8 15.8 52.8 15.2 52.2C14.6 51.6 14.6 50.7 15.2 50.1L21.7 43.6C21.8 43.5 21.8 43.4 21.8 43.2V32.5H28.8V33.2C28.8 33.3 28.9 33.5 28.9 33.6L35.4 40.1C35.7 40.4 35.8 40.8 35.8 41.2V51.1H35.9ZM28.9 31.5H21.9V24L25.3 27.4C25.8 27.9 26.4 28.1 27.1 28.1C27.7 28.1 28.4 27.9 28.9 27.4L29 27.3V31.5H28.9Z" fill="black"/>
<path d="M25.3 20.4C25.1 20.2 24.8 20.2 24.6 20.4C24.5 20.5 24.5 20.6 24.5 20.7C24.5 20.8 24.5 21 24.6 21.1L26.7 23.2C26.9 23.4 27.2 23.4 27.4 23.2L29.9 20.7L29.5 20.3C29.4 20.2 29.4 20.1 29.4 19.9C29.4 19.8 29.5 19.7 29.5 19.6L27 22.1L25.3 20.4Z" fill="black"/>
<path d="M34.5 21.8C34.6 21.7 34.6 21.6 34.7 21.5L34.8 21.4C35.5 20.6 35.8 19.5 35.8 18.5C35.8 18.3 35.8 18.2 35.8 18C35.8 17.8 35.7 17.7 35.7 17.5C35.5 16.7 35.1 16 34.5 15.4C33.5 14.4 31.9 14.4 31 15.4C30.4 16 30.2 16.8 30.3 17.5C30.3 17.7 30.4 17.8 30.4 18C30.5 18.2 30.5 18.3 30.6 18.5C30.6 18.5 30.6 18.5 30.6 18.6L29.5 19.7C29.4 19.8 29.4 19.9 29.4 20C29.4 20.1 29.5 20.3 29.5 20.4L29.9 20.8L30.7 21.6L31.2 22.1L31.7 22.6L32 22.9L32.4 23.3C32.5 23.4 32.6 23.4 32.8 23.4C32.9 23.4 33 23.4 33.1 23.3L33.8 22.6L34.3 22.1L34.5 21.8ZM32.1 21.5L30.6 20L31.7 18.9C31.8 18.8 31.8 18.7 31.8 18.5V18.4C31.8 18.3 31.8 18.3 31.7 18.2C31.7 18.2 31.7 18.2 31.7 18.1C31.6 18 31.6 17.9 31.5 17.9L31.4 17.8C31.3 17.7 31.3 17.6 31.3 17.4C31.2 16.9 31.3 16.4 31.7 16C32.3 15.4 33.2 15.4 33.8 16C34.2 16.4 34.5 16.9 34.6 17.4C34.7 17.6 34.7 17.7 34.7 17.9C34.7 18.1 34.7 18.2 34.7 18.4V18.5C34.7 18.8 34.6 19.1 34.6 19.4C34.4 20 34.2 20.5 33.7 20.9L33.3 21.3L32.8 22L32.7 22.1L32.6 22L32.1 21.5Z" fill="#EE2B2F"/>
</svg>
