<svg width="63" height="63" viewBox="0 0 63 63" fill="none" xmlns="http://www.w3.org/2000/svg">
<path d="M51.1 23C53 23 54.6 21.4 54.6 19.5C54.6 17.6 53 16 51.1 16C49.2 16 47.6 17.6 47.6 19.5C47.6 21.4 49.1 23 51.1 23ZM51.1 17C52.5 17 53.6 18.1 53.6 19.5C53.6 20.9 52.4 22 51.1 22C49.8 22 48.6 20.9 48.6 19.5C48.6 18.1 49.7 17 51.1 17Z" fill="black"/>
<path d="M48.2 28.1L49.4 29.3C53.5 30.3 56.6 34.1 56.6 38.5C56.6 43.7 52.3 48 47.1 48C41.9 48 37.6 43.7 37.6 38.5C37.6 34.7 39.8 31.5 43 29.9L42.3 29.2C42.3 29.2 42.3 29.2 42.2 29.1C38.8 30.9 36.5 34.4 36.5 38.4C36.5 44.2 41.2 48.9 47 48.9C52.8 48.9 57.5 44.2 57.5 38.4C57.6 33.1 53.4 28.6 48.2 28.1Z" fill="#00A64F"/>
<path d="M15.9 28C10.1 28 5.39999 32.7 5.39999 38.5C5.39999 44.3 10.2 49 15.9 49C21.6 49 26.4 44.3 26.4 38.5C26.4 32.7 21.7 28 15.9 28ZM15.9 48C10.7 48 6.39999 43.7 6.39999 38.5C6.39999 33.3 10.7 29 15.9 29C21.1 29 25.4 33.3 25.4 38.5C25.4 43.7 21.2 48 15.9 48Z" fill="#00A64F"/>
<path d="M43 30L47.9 34.9C48.4 35.4 49.1 35.7 49.8 35.7C50.4 35.7 50.9 35.5 51.4 35.1C52 34.6 52.3 33.9 52.3 33.2C52.3 32.5 52 31.9 51.6 31.4L49.5 29.3L48.3 28.1L46.7 26.5V19.5C46.7 17.6 45.1 16 43.2 16H32.2C31.2 16 30.4 16.4 29.7 17L28.3 18.4C28.3 18.4 28.3 18.5 28.2 18.5C28.1 18.6 28 18.7 28 18.8C28 18.9 27.9 18.9 27.9 19C27.8 19.2 27.7 19.4 27.7 19.6C27.7 19.8 27.6 19.9 27.6 20.1V40.1C27.6 41.5 28.7 42.6 30.1 42.6C31.5 42.6 32.6 41.5 32.6 40.1V36.7L39.6 29.7C40.1 29.2 40.3 28.6 40.3 27.9C40.3 27.2 40 26.6 39.6 26.1L36.3 23H41.6V27.5C41.6 28.1 41.8 28.7 42.3 29.2C42.3 29.2 42.3 29.2 42.4 29.3L43 30ZM28.4 22.3L31.4 25.3V30.8L28.8 33.4C28.6 33.6 28.5 33.8 28.4 34V22.3ZM31.4 40.2C31.4 41 30.7 41.7 29.9 41.7C29.1 41.7 28.4 41 28.4 40.2V36.2C28.5 36.4 28.7 36.6 28.8 36.8C29.3 37.3 29.9 37.5 30.6 37.5C30.9 37.5 31.1 37.4 31.4 37.4V40.2ZM38.8 27C39.1 27.3 39.2 27.7 39.2 28.1C39.2 28.5 39 28.9 38.8 29.2L32.5 35.5L31.8 36.2C31.7 36.3 31.6 36.3 31.5 36.4C30.9 36.8 30.2 36.7 29.6 36.2C29.3 35.9 29.2 35.5 29.2 35.1C29.2 34.7 29.4 34.3 29.6 34L31.5 32.2L32.5 31.2L35.3 28.4C35.4 28.3 35.4 28.2 35.4 28C35.4 27.9 35.3 27.7 35.3 27.6L32.5 24.8L31.5 23.8L29.6 22L28.9 21.3C28.6 21 28.5 20.6 28.5 20.2C28.5 20.1 28.5 20 28.5 19.9C28.5 19.8 28.6 19.7 28.6 19.6C28.7 19.5 28.8 19.3 28.9 19.2C28.9 19.2 28.9 19.2 28.9 19.1L29.1 18.9L29.9 18.1L30.9 19.1L31 19.2L32.4 20.6L33.8 22L34.3 22.5L34.8 23L38.8 27ZM32.4 29.8V26.3L34.1 28L32.4 29.8ZM42.1 20C41.8 20 41.6 20.2 41.6 20.5V22H35.3L31.8 18.5C31.8 18.5 31.8 18.5 31.7 18.4L30.7 17.4C31.1 17.1 31.6 17 32.1 17H43.1C44.5 17 45.6 18.1 45.6 19.5V19.6V19.8V26.6C45.6 26.7 45.7 26.9 45.7 27L46.7 28L47.7 29L50.8 32.1C51.1 32.4 51.2 32.8 51.2 33.2C51.2 33.6 51 34.1 50.7 34.3C50.1 34.8 49.2 34.7 48.6 34.1L44 29.6L43.2 28.8L43 28.6C42.7 28.3 42.6 27.9 42.6 27.5V22.5V22.1V20.5V20.4C42.5 20.2 42.3 20 42.1 20Z" fill="black"/>
</svg>
