<svg width="63" height="63" viewBox="0 0 63 63" fill="none" xmlns="http://www.w3.org/2000/svg">
<path d="M31 16C32.9 16 34.5 14.4 34.5 12.5C34.5 10.6 33 9 31 9C29 9 27.5 10.6 27.5 12.5C27.5 14.4 29.1 16 31 16ZM31 10C32.4 10 33.5 11.1 33.5 12.5C33.5 13.9 32.4 15 31 15C29.6 15 28.5 13.9 28.5 12.5C28.5 11.1 29.7 10 31 10Z" fill="black"/>
<path d="M50.9 17H27C26.3 17 25.7 17.3 25.2 17.7L14 29C13.1 29.9 13 31.3 13.7 32.3C14.1 32.9 14.8 33.3 15.5 33.3C15.6 33.3 15.6 33.3 15.7 33.3C16.4 33.3 17 33 17.5 32.6L26.5 23.6V31.6V32.6L20.9 38.2H12C10.7 38.2 9.6 39.1 9.4 40.3C9.3 41 9.5 41.8 10 42.3C10.5 42.9 11.2 43.2 11.9 43.2H21.9C22.6 43.2 23.2 42.9 23.7 42.5L30 36.2H31.3L34.3 43.4V52.8C34.3 54.1 35.2 55.2 36.4 55.4C36.5 55.4 36.7 55.4 36.8 55.4C37.4 55.4 38 55.2 38.4 54.8C39 54.3 39.3 53.6 39.3 52.9V42.9C39.3 42.6 39.2 42.2 39.1 41.9L35.5 33V31.5V22H51C51.7 22 52.4 21.7 52.9 21.1C53.4 20.5 53.6 19.8 53.5 19.1C53.3 17.9 52.2 17 50.9 17ZM38.2 42.2C38.3 42.4 38.3 42.6 38.3 42.8V52.8C38.3 53.2 38.1 53.7 37.8 53.9C37.5 54.2 37 54.3 36.6 54.2C35.9 54.1 35.4 53.4 35.4 52.6V43.1C35.4 43 35.4 43 35.4 42.9L32.2 35.3C32.1 35.1 31.9 35 31.7 35H29.9C29.8 35 29.6 35.1 29.5 35.1L23 41.7C22.7 42 22.3 42.1 21.9 42.1H12C11.6 42.1 11.1 41.9 10.9 41.6C10.6 41.3 10.5 40.8 10.6 40.4C10.7 39.7 11.4 39.2 12.2 39.2H21.3C21.4 39.2 21.6 39.1 21.7 39.1L27.6 33.2C27.7 33.1 27.7 33 27.7 32.8V32H34.7V33.1C34.7 33.2 34.7 33.2 34.7 33.3L38.2 42.2ZM52.2 20.5C51.9 20.8 51.5 21 51 21H35C34.7 21 34.5 21.2 34.5 21.5V31H27.5V22.3C27.5 22.1 27.4 21.9 27.2 21.8C27 21.7 26.8 21.8 26.7 21.9L16.8 31.8C16.5 32.1 16.1 32.3 15.6 32.2C15.2 32.2 14.8 31.9 14.5 31.6C14.1 31 14.2 30.2 14.7 29.6L26 18.5C26.3 18.2 26.7 18.1 27.1 18.1H51C51.8 18.1 52.5 18.6 52.6 19.3C52.6 19.7 52.5 20.2 52.2 20.5Z" fill="black"/>
<path d="M22 48.3C20.1 48.3 18.5 49.9 18.5 51.8C18.5 53.7 20.1 55.3 22 55.3C23.9 55.3 25.5 53.7 25.5 51.8C25.5 49.9 23.9 48.3 22 48.3ZM22 54.3C20.6 54.3 19.5 53.2 19.5 51.8C19.5 50.4 20.6 49.3 22 49.3C23.4 49.3 24.5 50.4 24.5 51.8C24.5 53.2 23.3 54.3 22 54.3Z" fill="#FCB019"/>
</svg>
