<svg width="63" height="63" viewBox="0 0 63 63" fill="none" xmlns="http://www.w3.org/2000/svg">
<path d="M36 13.4C35.9 13.8 35.8 14.1 35.6 14.4H38.3L39.3 13.4H36Z" fill="#00A64F"/>
<path d="M20.6 13.4C18.9 13.4 17.4 14.2 16.5 15.6L16.2 16.1C15.7 16.8 15.9 17.7 16.6 18.2C16.9 18.4 17.1 18.4 17.4 18.4C17.9 18.4 18.4 18.2 18.7 17.7L20.9 14.3H29.6C29.4 14 29.3 13.7 29.2 13.3H20.6V13.4ZM17.8 17.2C17.6 17.4 17.3 17.5 17.1 17.3C16.9 17.1 16.8 16.8 17 16.6L17.3 16.1C17.8 15.3 18.7 14.7 19.6 14.5L17.8 17.2Z" fill="#00A64F"/>
<path d="M36.1 12.5C36.1 10.6 34.5 9 32.6 9C30.7 9 29.1 10.6 29.1 12.5C29.1 12.8 29.1 13.1 29.2 13.3C29.3 13.7 29.4 14 29.6 14.3C30.2 15.3 31.3 16 32.6 16C33.9 16 34.9 15.3 35.6 14.3C35.8 14 35.9 13.7 36 13.3C36 13.1 36.1 12.8 36.1 12.5ZM34.9 13.4C34.8 13.8 34.5 14.1 34.2 14.4C33.8 14.8 33.2 15.1 32.5 15.1C31.8 15.1 31.3 14.8 30.8 14.4C30.5 14.1 30.3 13.8 30.1 13.4C30 13.1 29.9 12.9 29.9 12.6C29.9 11.2 31 10.1 32.4 10.1C33.8 10.1 34.9 11.2 34.9 12.6C35.1 12.8 35 13.1 34.9 13.4Z" fill="black"/>
<path d="M44.8 11.4C44.3 11.4 43.8 11.5 43.4 11.7C42.4 11.2 41.2 11.4 40.4 12.2L39.2 13.4L38.2 14.4L35.6 17H28.7H28.6C27.9 17 27.3 17.3 26.8 17.7C26.8 17.7 26.7 17.8 26.7 17.9C26.7 17.9 26.7 17.9 26.6 18C26.5 18.1 26.5 18.2 26.4 18.3C26.3 18.4 26.3 18.5 26.2 18.6C26.2 18.6 26.2 18.7 26.1 18.7C26 18.8 26 19 26 19.1C26 19.2 26 19.3 26 19.4C26 19.5 26 19.6 26 19.7C26 19.8 26 19.9 26.1 20V20.1V20.2C26.2 20.5 26.3 20.8 26.6 21C27 21.4 27.5 21.7 28 21.8V31.4V42.4L21.7 48.7C20.7 49.7 20.7 51.3 21.7 52.2C22.7 53.2 24.3 53.2 25.2 52.2L32 45.4V53.4C32 54.8 33.1 55.9 34.5 55.9C35.9 55.9 37 54.8 37 53.4V31.4V22H44.5C45.9 22 47 20.9 47 19.5V14C47.1 12.6 46.1 11.5 44.8 11.4ZM36.1 53.5C36.1 54.3 35.4 55 34.6 55C33.8 55 33.1 54.3 33.1 53.5V43.5V35.5C33.1 35.2 32.9 35 32.6 35C32.3 35 32.1 35.2 32.1 35.5V43.5C32.1 43.9 31.9 44.3 31.7 44.6L24.6 51.7C24 52.3 23.1 52.3 22.5 51.7C21.9 51.1 21.9 50.2 22.5 49.6L29 43.1C29.1 43 29.1 42.9 29.1 42.7V32H36.1V53.5ZM36.1 31H29.1V22H36.1V31ZM36.6 21H28.7C27.9 21 27.3 20.5 27.1 19.8V19.7C27.1 19.6 27.1 19.6 27.1 19.5V19.4V19.3C27.1 19.2 27.2 19 27.3 18.9C27.4 18.8 27.4 18.7 27.5 18.6C27.8 18.3 28.1 18.2 28.6 18.2H28.7H35.8C35.9 18.2 36.1 18.1 36.2 18.1L36.6 17.7L37 17L39.7 14.3L40.7 13.3L41.2 12.8C41.6 12.4 42.2 12.2 42.7 12.3C42.9 12.3 43 12.4 43.2 12.5C43.2 12.5 43.2 12.5 43.3 12.5C43.4 12.6 43.5 12.7 43.6 12.8C43.8 13 43.9 13.3 43.9 13.6C43.9 14 43.8 14.5 43.5 14.8L43.3 15L42.8 15.5L42.3 16L41.2 17L40.7 17.5L40.2 18L37.6 20.6C37.4 20.9 37 21 36.6 21ZM46.1 19.5C46.1 20.3 45.4 21 44.6 21H38.6L41.6 18H42.6C42.9 18 43.1 17.8 43.1 17.5V16.5L44 15.6C44.5 15.1 44.8 14.4 44.7 13.6C44.7 13.1 44.5 12.7 44.2 12.3C44.4 12.3 44.5 12.2 44.7 12.3C45.5 12.4 46.1 13.1 46.1 13.9V19.5Z" fill="black"/>
</svg>
