<svg width="63" height="63" viewBox="0 0 63 63" fill="none" xmlns="http://www.w3.org/2000/svg">
<path d="M31.7 16C33.6 16 35.2 14.4 35.2 12.5C35.2 10.6 33.7 9 31.7 9C29.7 9 28.2 10.6 28.2 12.5C28.2 14.4 29.8 16 31.7 16ZM31.7 10C33.1 10 34.2 11.1 34.2 12.5C34.2 13.9 33.1 15 31.7 15C30.3 15 29.2 13.9 29.2 12.5C29.2 11.1 30.3 10 31.7 10Z" fill="black"/>
<path d="M51.7 17H22.2V11.5C22.2 11.3 22.2 11.2 22.1 11C21.8 11.3 21.5 11.5 21.2 11.7V17.6C21.2 17.9 21.4 18.1 21.7 18.1H51.7C52.5 18.1 53.2 18.8 53.2 19.6C53.2 20.4 52.5 21 51.7 21H35.7C35.4 21 35.2 21.2 35.2 21.5V31H28.2V21.5C28.2 21.2 28 21 27.7 21H19.7C18.9 21 18.2 20.3 18.2 19.5V11.6C17.8 11.4 17.5 11.2 17.3 10.9C17.3 11.1 17.2 11.2 17.2 11.4V19.4C17.2 20.8 18.3 21.9 19.7 21.9H27.2V31.4V32.4L13.8 45.9C13.3 46.4 13.1 47 13.1 47.7C13.1 48.4 13.4 49 13.8 49.5C14.3 50 14.9 50.2 15.6 50.2C16.3 50.2 16.9 50 17.4 49.5L30.8 36H32.1L34.3 41.4L27.4 44.3C26.1 44.8 25.5 46.3 26 47.6C26.5 48.9 28 49.5 29.3 49L38.5 45.2C39.1 44.9 39.6 44.5 39.9 43.8C40.2 43.2 40.2 42.5 39.9 41.9L36.2 33V31.5V22H51.7C53.1 22 54.2 20.9 54.2 19.5C54.2 18.1 53.1 17 51.7 17ZM38.9 42.2C39.1 42.6 39.1 43 38.9 43.3C38.7 43.6 38.5 44 38.1 44.1L28.9 48C28.1 48.3 27.3 48 26.9 47.2C26.6 46.4 26.9 45.6 27.7 45.2L35.1 42.1C35.2 42 35.3 42 35.4 41.8C35.5 41.6 35.5 41.5 35.4 41.4L32.8 35.2C32.7 35 32.5 34.9 32.3 34.9H30.5C30.4 34.9 30.2 35 30.1 35L16.6 48.7C16 49.3 15.1 49.3 14.5 48.7C14.2 48.4 14.1 48 14.1 47.6C14.1 47.2 14.3 46.8 14.5 46.5L28.1 32.9C28.2 32.8 28.2 32.7 28.2 32.5V32H35.2V33.1C35.2 33.2 35.2 33.2 35.2 33.3L38.9 42.2Z" fill="black"/>
<path d="M19.7 12C20.2 12 20.7 11.9 21.2 11.6C21.6 11.4 21.9 11.2 22.1 10.9C22.7 10.3 23.2 9.39999 23.2 8.39999C23.2 6.49999 21.6 4.89999 19.7 4.89999C17.8 4.89999 16.2 6.49999 16.2 8.39999C16.2 9.39999 16.6 10.3 17.3 10.9C17.6 11.2 17.9 11.4 18.2 11.6C18.7 11.9 19.2 12 19.7 12ZM19.7 5.99999C21.1 5.99999 22.2 7.09999 22.2 8.49999C22.2 9.09999 22 9.59999 21.7 9.99999C21.5 10.3 21.2 10.5 21 10.7C20.6 10.9 20.2 11 19.8 11C19.4 11 18.9 10.9 18.6 10.7C18.3 10.5 18.1 10.3 17.9 9.99999C17.6 9.59999 17.4 9.09999 17.4 8.49999C17.2 7.19999 18.3 5.99999 19.7 5.99999Z" fill="#FCB019"/>
</svg>
