<svg width="63" height="63" viewBox="0 0 63 63" fill="none" xmlns="http://www.w3.org/2000/svg">
<path d="M49.6 12.8C48.2 11.4 46 11.4 44.6 12.8C43.2 14.2 43.2 16.4 44.6 17.7C45.3 18.4 46.2 18.7 47.1 18.7C48 18.7 48.9 18.4 49.6 17.7C51 16.4 51 14.2 49.6 12.8ZM48.9 17C47.9 18 46.3 18 45.4 17C44.4 16 44.4 14.4 45.4 13.5C45.9 13 46.5 12.8 47.2 12.8C47.8 12.8 48.5 13 49 13.5C49.9 14.5 49.9 16.1 48.9 17Z" fill="black"/>
<path d="M46.8 21.3L41.1 15.6C40.6 15.1 40 14.9 39.3 14.9H33.8V9.39999C33.8 7.99999 32.7 6.89999 31.3 6.89999C29.9 6.89999 28.9 7.99999 28.9 9.39999V17.4C28.9 18.8 30 19.9 31.4 19.9H36.2L32.3 23.8L30.9 25.2L18.5 12.8C17.6 11.9 15.9 11.9 15 12.8C14.5 13.3 14.3 13.9 14.3 14.6C14.3 15.3 14.6 15.9 15 16.4L31.2 32.6V51.6C31.2 53 32.3 54.1 33.7 54.1C35.1 54.1 36.2 53 36.2 51.6V32.6L36.5 32.3L38.6 30.2L39.5 29.3L43.1 32.9C43.2 33 43.3 33.1 43.4 33.1C43.4 33.1 43.5 33.1 43.5 33.2C43.6 33.3 43.7 33.3 43.9 33.4C43.9 33.4 43.9 33.4 44 33.4C44.1 33.5 44.2 33.5 44.4 33.5H44.5C44.7 33.5 44.8 33.6 45 33.6C46.4 33.6 47.5 32.5 47.5 31.1V23.1C47.5 22.4 47.3 21.8 46.8 21.3ZM45.2 21.1H41.3C41.3 20.5 41.3 19.3 41.3 17.2L45.2 21.1ZM31.4 18.9C30.6 18.9 29.9 18.2 29.9 17.4V9.39999C29.9 8.59999 30.6 7.89999 31.4 7.89999C32.2 7.89999 32.9 8.59999 32.9 9.39999V15.4C32.9 15.7 33.1 15.9 33.4 15.9H39.4C39.7 15.9 40.1 16 40.3 16.2C40.3 17.8 40.3 20.2 40.3 21.1H36.3L37.7 19.7C37.8 19.6 37.9 19.3 37.8 19.2C37.7 19.1 37.5 18.9 37.3 18.9H31.4ZM36.5 30.8L31.6 25.9L32.3 25.2L37.2 30.1L36.5 30.8ZM35.4 32C35.3 32.1 35.3 32.2 35.3 32.4V51.6C35.3 52.4 34.6 53.1 33.8 53.1C33 53.1 32.3 52.4 32.3 51.6V32.4C32.3 32.3 32.2 32.1 32.2 32L15.7 15.6C15.4 15.3 15.3 14.9 15.3 14.5C15.3 14.1 15.5 13.7 15.7 13.4C15.9 13.1 16.4 13 16.8 13C17.2 13 17.6 13.2 17.9 13.4L35.9 31.4L35.4 32ZM46.5 31.1C46.5 31.9 45.8 32.6 45 32.6C45 32.6 45 32.6 44.9 32.6C44.8 32.6 44.7 32.6 44.7 32.6C44.7 32.6 44.7 32.6 44.6 32.6C44.5 32.6 44.5 32.6 44.4 32.5C44.3 32.5 44.3 32.4 44.2 32.4C44.1 32.4 44.1 32.3 44 32.2L42.6 30.8L40.4 28.6L39.7 27.9L38.4 26.6C37.8 26 37.8 25.1 38.4 24.5C39 23.9 40 23.9 40.5 24.5L41.8 25.8L42.5 26.5L42.6 26.6L43.6 27.6L44 28C44.1 28.1 44.3 28.2 44.4 28.1C44.5 28.1 44.6 28 44.7 28C44.9 27.8 44.9 27.5 44.7 27.3L43.5 26V25C43.5 24.8 43.4 24.6 43.2 24.5C43.1 24.5 43.1 24.5 43 24.5C42.9 24.5 42.7 24.6 42.6 24.6L42.4 24.8L41.1 23.5C40.1 22.5 38.5 22.5 37.6 23.5C36.6 24.5 36.6 26.1 37.6 27L38.9 28.3L38 29.4L33 24.5L35.3 22.2H40.7H46.1C46.3 22.5 46.4 22.8 46.4 23.1V31.1H46.5Z" fill="black"/>
</svg>
