<svg width="63" height="63" viewBox="0 0 63 63" fill="none" xmlns="http://www.w3.org/2000/svg">
<path d="M43.6 29.8C43.2 29.8 42.8 29.6 42.5 29.4L39.3 26.2L39.7 25.8C40.4 25.1 40.7 24.3 40.7 23.3L44 26.6C44 26.6 44.1 26.7 44.2 26.7C44.3 26.3 44.4 26 44.5 25.7L39.6 20.8L34 15.2C33 14.2 31.4 14.2 30.5 15.2L24.8 20.9C23.8 21.9 23.8 23.5 24.8 24.4C25.3 24.9 25.9 25.1 26.6 25.1C27.2 25.1 27.9 24.9 28.4 24.4L32.3 20.5L33.7 21.9L27 28.6L25.6 30C25.2 30.4 25 30.9 24.9 31.5L12.1 44.3C11.6 44.8 11.4 45.4 11.4 46.1C11.4 46.8 11.7 47.4 12.1 47.9C12.6 48.4 13.2 48.6 13.9 48.6C14.5 48.6 15.2 48.4 15.7 47.9L27.7 35.8L31.6 39.7L26.3 45C25.8 45.5 25.6 46.1 25.6 46.8C25.6 47.5 25.9 48.1 26.3 48.6C26.8 49.1 27.4 49.3 28.1 49.3C28.8 49.3 29.4 49.1 29.9 48.6L37 41.5C37.4 41.1 37.7 40.5 37.7 39.9V39.8C37.7 39.8 37.7 39.8 37.7 39.7C37.7 39.6 37.7 39.6 37.7 39.5V39.4C37.6 38.8 37.4 38.3 37 37.9L32.4 33.3L38.8 26.9L42 30.1C42.5 30.6 43.1 30.8 43.8 30.8H44.8C44.7 30.5 44.5 30.1 44.4 29.8H43.6ZM36.6 39.6C36.6 40.1 36.4 40.4 36.2 40.7L29.1 47.8C28.5 48.4 27.6 48.4 27 47.8C26.7 47.5 26.6 47.1 26.6 46.7C26.6 46.3 26.8 45.9 27 45.6L32.7 40C32.8 39.9 32.8 39.8 32.8 39.6C32.8 39.5 32.7 39.3 32.7 39.2L28.4 35L28 34.7L27.6 34.3L26.2 32.9C25.9 32.6 25.8 32.3 25.8 32C25.8 31.7 25.9 31.3 26.1 31C26.2 30.9 26.2 30.8 26.3 30.8L27.4 29.7L27.6 29.9L28 30.3L29.5 31.8L29.9 32.2L30.3 32.6L31.1 33.4L36 38.3C36.3 38.6 36.4 38.9 36.4 39.3C36.6 39.5 36.6 39.6 36.6 39.6ZM12.8 47.1C12.5 46.8 12.4 46.4 12.4 46C12.4 45.6 12.6 45.2 12.8 44.9L25 32.8C25.1 33.1 25.3 33.4 25.5 33.6L27 35L15 47.1C14.4 47.7 13.4 47.7 12.8 47.1ZM31.5 32.5L30.4 31.4L28.4 29.4L28 29L34.4 22.6L35.5 23.7C35.6 23.8 35.7 23.8 35.8 23.8C35.9 23.8 36.1 23.8 36.2 23.7C36.4 23.5 36.4 23.3 36.3 23.1C36.3 23.1 36.3 23 36.2 23L35.5 22.3L35.1 21.9L34.7 21.5L34.3 21.1L32.5 19.3C32.3 19.1 32 19.1 31.8 19.3L27.6 23.5C27 24.1 26.1 24.1 25.5 23.5C24.9 22.9 24.9 22 25.5 21.4L31.2 15.7C31.8 15.1 32.7 15.1 33.3 15.7L37.3 19.7L37.6 20L37.8 20.2L38.9 21.3L39 21.4C39.5 21.9 39.7 22.5 39.7 23.2C39.7 23.9 39.4 24.5 39 25L38.6 25.4L37.9 26.1L31.5 32.5Z" fill="black"/>
<path d="M42.9 21.2C43.8 21.2 44.7 20.8 45.4 20.2C46.8 18.8 46.8 16.6 45.4 15.3C44 13.9 41.8 13.9 40.5 15.3C39.8 16 39.5 16.8 39.5 17.8C39.5 18.7 39.9 19.6 40.5 20.3C41.1 21 41.9 21.2 42.9 21.2ZM41.1 15.9C41.6 15.4 42.2 15.2 42.9 15.2C43.6 15.2 44.2 15.4 44.7 15.9C45.7 16.9 45.7 18.5 44.7 19.4C43.8 20.3 42.1 20.3 41.2 19.4C40.7 18.9 40.5 18.3 40.5 17.6C40.4 17 40.6 16.4 41.1 15.9Z" fill="black"/>
<path d="M48.9 30.7C48.7 30.7 48.6 30.6 48.4 30.5C48.4 30.6 48.3 30.7 48.3 30.8C48.1 31.2 47.8 31.6 47.6 31.9C47.3 32.3 46.7 32.3 46.4 31.9C46.2 31.6 45.9 31.2 45.7 30.8C45.5 30.5 45.4 30.2 45.3 29.8C45.1 29.3 45 28.8 45 28.2C45 27.7 45.1 27.2 45.2 26.8C45.3 26.4 45.4 26.1 45.6 25.8C45.8 25.3 46.1 24.9 46.4 24.5C46.5 24.3 46.8 24.2 47 24.2C47.2 24.2 47.4 24.3 47.6 24.5C47.9 24.9 48.1 25.3 48.4 25.8C48.4 25.9 48.5 26 48.5 26.1C48.6 26 48.8 26 49 25.9C49.2 25.9 49.3 25.8 49.5 25.8C49.2 25.1 48.8 24.4 48.4 23.9C47.7 23 46.3 23 45.6 23.9C45.2 24.4 44.8 25 44.5 25.7C44.4 26 44.2 26.4 44.2 26.7C44.1 27.2 44 27.7 44 28.2C44 28.8 44.1 29.3 44.2 29.8C44.3 30.1 44.4 30.5 44.6 30.8C44.9 31.5 45.3 32.1 45.6 32.5C45.9 32.9 46.4 33.2 47 33.2C47.6 33.2 48.1 32.9 48.4 32.5C48.7 32 49.1 31.4 49.4 30.8C49.2 30.8 49.1 30.7 48.9 30.7Z" fill="#EE2B2F"/>
<path d="M49.6 25.8H49.5C49.5 25.8 49.5 25.8 49.6 25.8C49.3 25.8 49.2 25.8 49 25.9C48.8 25.9 48.7 26 48.5 26.1C48.1 26.3 47.8 26.5 47.6 26.8C47.3 27.2 47.1 27.7 47.1 28.3C47.1 28.9 47.3 29.4 47.6 29.8C47.8 30.1 48.1 30.3 48.4 30.5C48.5 30.6 48.7 30.6 48.9 30.7C49.1 30.7 49.2 30.8 49.4 30.8H49.6C51 30.8 52.1 29.7 52.1 28.3C52.1 26.9 50.9 25.8 49.6 25.8ZM49.8 29.8C49.7 29.8 49.7 29.8 49.6 29.8C49.5 29.8 49.4 29.8 49.3 29.8C49.1 29.8 49 29.7 48.8 29.6C48.4 29.3 48.1 28.9 48.1 28.3C48.1 27.7 48.4 27.3 48.9 27C49 26.9 49.2 26.9 49.4 26.8C49.5 26.8 49.6 26.8 49.7 26.8C49.8 26.8 49.9 26.8 49.9 26.8C50.6 26.9 51.2 27.5 51.2 28.3C51.1 29.1 50.5 29.7 49.8 29.8Z" fill="black"/>
</svg>
