<svg width="63" height="63" viewBox="0 0 63 63" fill="none" xmlns="http://www.w3.org/2000/svg">
<path d="M43.2 21.2C44.1 21.2 45 20.8 45.7 20.2C46.4 19.6 46.7 18.7 46.7 17.7C46.7 16.8 46.3 15.9 45.7 15.2C44.3 13.8 42.1 13.8 40.8 15.2C39.4 16.6 39.4 18.8 40.8 20.1C41.3 20.8 42.2 21.2 43.2 21.2ZM44.9 15.9C45.4 16.4 45.6 17 45.6 17.7C45.6 18.4 45.3 19 44.9 19.5C44 20.4 42.3 20.4 41.4 19.5C40.4 18.5 40.4 16.9 41.4 16C41.9 15.5 42.5 15.3 43.2 15.3C43.9 15.3 44.4 15.5 44.9 15.9Z" fill="black"/>
<path d="M47.8 20.9L43.9 24.8L40 20.9L34.4 15.2C33.4 14.2 31.8 14.2 30.9 15.2L25.2 20.9C24.2 21.9 24.2 23.5 25.2 24.4C25.7 24.9 26.3 25.1 27 25.1C27.7 25.1 28.3 24.8 28.8 24.4L32.7 20.5L34.1 21.9L27.4 28.6L26 30C25.4 30.6 25.2 31.4 25.3 32.1L12.4 44.9C11.4 45.9 11.4 47.5 12.4 48.4C12.9 48.9 13.5 49.1 14.2 49.1C14.8 49.1 15.5 48.9 16 48.4L28.4 36L31.9 39.5L26.6 44.8C25.6 45.8 25.6 47.4 26.6 48.3C27.1 48.8 27.7 49 28.4 49C29 49 29.7 48.8 30.2 48.3L37.3 41.2C38.3 40.2 38.3 38.6 37.3 37.7L32.7 33.1L39.1 26.7L42.3 29.9C42.8 30.4 43.4 30.6 44.1 30.6C44.8 30.6 45.4 30.3 45.9 29.9L51.6 24.2C52.1 23.7 52.3 23.1 52.3 22.4C52.3 21.7 52 21.1 51.6 20.6C50.3 19.9 48.7 19.9 47.8 20.9ZM42.8 29.4L37.9 24.4C37.9 24.4 37.8 24.4 37.8 24.3C37.6 24.2 37.4 24.2 37.2 24.4C37 24.6 37 24.9 37.2 25.1L38.3 26.2L31.9 32.6L28.3 29L35.7 21.6C36.6 20.7 38.3 20.7 39.2 21.6L39.3 21.7L43.5 25.9C43.7 26.1 44 26.1 44.2 25.9L48.4 21.7C49 21.1 49.9 21.1 50.5 21.7C50.8 22 50.9 22.4 50.9 22.8C50.9 23.2 50.7 23.6 50.5 23.9L44.8 29.6C44.5 29.9 44.2 30 43.7 30C43.5 29.8 43.1 29.7 42.8 29.4ZM27.2 47.8C26.9 47.5 26.8 47.1 26.8 46.7C26.8 46.3 27 45.9 27.2 45.6L32.9 39.9C33 39.8 33 39.7 33 39.5C33 39.3 32.9 39.2 32.9 39.1L26.5 32.7C26.4 32.6 26.3 32.4 26.2 32.3C26.1 32.1 26.1 31.9 26.1 31.7C26.1 31.3 26.2 30.9 26.5 30.6L27.6 29.5L36.4 38.3C37 38.9 37 39.8 36.4 40.4L29.3 47.5C28.8 48.4 27.8 48.4 27.2 47.8ZM13.1 47.8C12.5 47.2 12.5 46.3 13.1 45.7L25.5 33.3C25.6 33.4 25.7 33.6 25.8 33.7L27.6 35.5L15.2 47.8C14.6 48.4 13.7 48.4 13.1 47.8ZM32.2 19.5L28 23.7C27.4 24.3 26.4 24.3 25.9 23.7C25.3 23.1 25.3 22.2 25.9 21.6L31.6 15.9C32.2 15.3 33.1 15.3 33.7 15.9L37.7 19.9C36.8 19.9 35.8 20.2 35.1 20.9L34.8 21.2L33 19.4C32.7 19.3 32.4 19.3 32.2 19.5Z" fill="black"/>
</svg>
