<svg width="63" height="63" viewBox="0 0 63 63" fill="none" xmlns="http://www.w3.org/2000/svg">
<g clip-path="url(#clip0_2_836)">
<path d="M7.1 25.8C6.5 26.2 6.1 26.9 6.1 27.6C6 28.3 6.3 29 6.8 29.6L7.2 29.3C7.3 29 7.5 29 7.7 29.1L7.5 28.9C7.2 28.6 7 28.1 7.1 27.7C7.1 27.3 7.4 26.9 7.7 26.6C7.9 26.4 8.2 26.3 8.5 26.3C8.9 26.3 9.3 26.5 9.7 26.8L13.4 30.5C13.6 30.4 13.7 30.3 13.8 30.2C13.9 30.1 14.1 30 14.2 29.9L10.3 26C9.5 25.2 8.1 25.1 7.1 25.8Z" fill="black"/>
<path d="M42.9 26.8C43.8 26.8 44.7 26.4 45.4 25.8C46.8 24.4 46.8 22.2 45.4 20.9C44.1 19.6 41.8 19.6 40.5 20.9C39.8 21.6 39.5 22.4 39.5 23.4C39.5 24.4 39.9 25.2 40.5 25.9C41.1 26.6 42 26.8 42.9 26.8ZM42.9 20.8C43.6 20.8 44.2 21.1 44.7 21.5C45.7 22.5 45.7 24.1 44.7 25C43.8 25.9 42.1 25.9 41.2 25C40.7 24.5 40.5 23.9 40.5 23.2C40.5 22.5 40.8 21.9 41.2 21.4C41.6 20.9 42.2 20.8 42.9 20.8Z" fill="black"/>
<path d="M39.7 26.5L34.1 20.9C33.6 20.4 33 20.2 32.3 20.2H24.3C23.6 20.2 22.9 20.5 22.4 21.1C21.9 21.7 21.7 22.4 21.8 23.1C22 24.3 23.1 25.2 24.4 25.2H31.3L33.1 27L25.8 30L25.1 30.3C25.2 30.4 25.4 30.5 25.5 30.5C25.5 30.5 25.6 30.5 25.7 30.6C25.9 30.7 26 30.8 26.2 30.8C26.4 30.9 26.6 30.9 26.8 31L26.7 30.7L33.9 27.7L34.4 27.5L34.9 27.3L36.3 26.7C36.3 26.7 36.3 26.7 36.4 26.7C37 26.4 37.7 26.4 38.3 26.7C38.6 26.8 38.8 27 39.1 27.2L40 28.1L40.2 28.3L40.4 28.5L40.7 28.8L42.7 30.8C43 30.8 43.2 30.9 43.5 30.9C43.7 30.9 43.9 30.9 44.2 30.8L39.7 26.5ZM35.9 25.8L34.1 26.6L31.9 24.4C31.8 24.3 31.7 24.3 31.5 24.3H24.4C23.6 24.3 22.9 23.8 22.8 23C22.7 22.6 22.9 22.1 23.1 21.8C23.4 21.5 23.8 21.3 24.2 21.3H32.2C32.6 21.3 33 21.5 33.3 21.7L37.2 25.6C37 25.6 36.7 25.6 36.5 25.7C36.4 25.6 36.1 25.7 35.9 25.8Z" fill="black"/>
<path d="M37.6 30.1C37.5 30 37.3 29.9 37.1 30H37C37 30 37 30 36.9 30C36.8 30.1 36.7 30.3 36.8 30.4C36.8 30.5 36.9 30.6 36.9 30.7C37 30.7 37.1 30.6 37.2 30.6C37.3 30.6 37.3 30.5 37.4 30.5C37.6 30.4 37.7 30.3 37.8 30.2L37.6 30.1Z" fill="black"/>
<path d="M8.20001 32.6C7.00001 32.1 5.70001 32.6 5.00001 33.6C4.60001 34.2 4.50001 35 4.70001 35.7C4.90001 36.4 5.40001 37 6.10001 37.2L15.3 41C15.6 41.1 15.9 41.2 16.3 41.2C16.6 41.2 16.9 41.1 17.3 41L28.4 36.4L38.4 32.3L41.8 35.7C42.3 36.2 42.9 36.4 43.6 36.4H51.6C52.3 36.4 53 36.1 53.5 35.5C54 34.9 54.2 34.2 54.1 33.5C54 32.8 53.5 32.1 52.9 31.8C52.6 31.9 52.3 31.9 51.9 32C51.4 32 51 32 50.5 32C50 31.9 49.5 31.7 49.1 31.5H45.8C45.4 31.7 44.9 31.9 44.4 32C44.2 32 44 32 43.8 32.1L44.1 32.4C44.2 32.5 44.3 32.5 44.5 32.5H51.6C52.4 32.5 53.1 33 53.2 33.8C53.3 34.2 53.1 34.7 52.9 35C52.6 35.3 52.2 35.5 51.8 35.5H43.8C43.4 35.5 43 35.3 42.7 35.1L39.5 31.9L39 31.4L38.6 31C38.5 31.1 38.3 31.2 38.2 31.3C38.1 31.4 37.9 31.4 37.8 31.5H37.7C37.5 31.6 37.4 31.7 37.2 31.7L28.6 35.3L28 34.1C28 34.1 28 34.1 28 34L27.6 33L27.2 32C27 32 26.8 32 26.6 31.9C26.4 31.9 26.2 31.8 26 31.7L26.3 32.4L26.6 33L26.7 33.3L27.6 35.4L27.7 35.6L27.5 35.7L24.8 36.8L23.6 37.3L17 40.1C16.6 40.3 16.2 40.3 15.9 40.1L6.70001 36.3C6.30001 36.1 6.00001 35.8 5.80001 35.4C5.70001 35 5.70001 34.5 6.00001 34.1C6.30001 33.7 6.80001 33.4 7.30001 33.4C7.50001 33.4 7.70001 33.4 8.00001 33.5L13 35.6L14.2 36.1L16.1 36.9L16.4 37C16.5 37.1 16.7 37.1 16.8 37L17.1 36.9L18.3 36.4L23.4 34.3C23.5 34.2 23.6 34.2 23.7 34C23.8 33.8 23.8 33.7 23.7 33.6C23.7 33.5 23.6 33.4 23.6 33.4C23.6 33.2 23.6 33.1 23.6 32.9C23.6 32.7 23.7 32.6 23.7 32.4C23.9 32.1 24.1 31.8 24.5 31.7L25.2 31.4C25 31.3 24.9 31.2 24.7 31.1C24.5 31 24.4 30.9 24.2 30.7H24.1C23.5 31 23 31.4 22.7 32.1C22.7 32.2 22.7 32.3 22.6 32.4H16.8L15 30.7C14.9 30.8 14.7 30.9 14.6 31C14.5 31.1 14.3 31.2 14.2 31.3L16.1 33.2C16.2 33.3 16.3 33.3 16.5 33.3H22.4V33.4L16.4 35.9L13.4 34.7L10.6 31.9C10.3 31.8 9.90001 31.7 9.60001 31.6C9.00001 31.4 8.50001 31 8.00001 30.6L7.50001 30.2L11 33.7L8.20001 32.6Z" fill="#7F7C7C"/>
<path d="M0 30.7C1.9 32.5 5.1 32.5 7 30.7L7.4 30.3L8 30.7C8.5 31.1 9 31.5 9.6 31.7C9.9 31.8 10.3 31.9 10.6 32C11.8 32.2 13.1 32 14.2 31.4C14.3 31.3 14.5 31.2 14.6 31.1C14.7 31 14.9 30.9 15 30.8C15 30.8 15 30.8 15.1 30.8L15.6 30.4L16.1 30.8C18 32.6 21.2 32.6 23.1 30.8L23.6 30.4L24.1 30.8C24.2 30.9 24.4 31 24.6 31.2C24.8 31.3 24.9 31.4 25.1 31.5C25.4 31.7 25.7 31.8 26.1 31.9C26.3 32 26.5 32 26.7 32.1C26.9 32.1 27.1 32.1 27.3 32.2C28.7 32.3 30.1 31.9 31.2 30.9L31.7 30.5L32.2 30.9C33.6 32.2 35.6 32.6 37.4 32C37.6 31.9 37.8 31.9 37.9 31.8H38C38.1 31.7 38.3 31.7 38.4 31.6C38.5 31.5 38.7 31.4 38.8 31.3C39 31.2 39.1 31.1 39.3 31L39.6 30.7L39.7 30.6L40 30.9L40.1 31C40.2 31.1 40.3 31.1 40.3 31.2C41.2 32 42.4 32.4 43.6 32.4C43.7 32.4 43.8 32.4 43.9 32.4C44.1 32.4 44.3 32.4 44.5 32.3C45 32.2 45.5 32 45.9 31.8C46.3 31.6 46.7 31.3 47.1 31L47.6 30.6L48.1 31C48.4 31.3 48.8 31.6 49.3 31.8C49.8 32 50.2 32.2 50.7 32.3C51.1 32.4 51.6 32.4 52.1 32.3C52.4 32.3 52.7 32.2 53.1 32.1C53.9 31.9 54.6 31.5 55.2 30.9L55.7 30.5L56.2 30.9C57.1 31.8 58.4 32.3 59.7 32.3C61 32.3 62.3 31.8 63.2 30.9V30V29.3L62.5 29.9C61 31.3 58.3 31.3 56.8 29.9L56 29.1C55.8 28.9 55.5 28.9 55.3 29.1L54.5 29.9C52.9 31.4 50.4 31.4 48.8 29.9L48 29.1C47.8 28.9 47.5 28.9 47.3 29.1L46.5 29.9C45.9 30.5 45.1 30.8 44.3 30.9C44.1 30.9 43.9 31 43.6 31C43.3 31 43.1 31 42.8 30.9C42 30.8 41.3 30.4 40.7 29.9L40.3 29.5H40.2L39.9 29.2C39.9 29.2 39.9 29.2 39.8 29.2C39.6 29.1 39.4 29.1 39.2 29.2L38.9 29.5L38.4 30C38.3 30.1 38.1 30.2 38 30.3C37.9 30.4 37.7 30.5 37.6 30.6C37.5 30.6 37.5 30.7 37.4 30.7C37.3 30.7 37.2 30.8 37.1 30.8C35.7 31.3 34 31 32.8 30L32 29.2C31.8 29 31.5 29 31.3 29.2L30.5 30C29.5 30.9 28.1 31.3 26.9 31C26.7 31 26.5 30.9 26.3 30.8C26.1 30.7 26 30.7 25.8 30.6C25.7 30.6 25.7 30.6 25.6 30.5C25.5 30.4 25.3 30.3 25.2 30.3C25.1 30.2 24.9 30.1 24.8 30L24 29.2C23.8 29 23.5 29 23.3 29.2L22.5 30C20.9 31.5 18.4 31.5 16.8 30L16 29.2C15.8 29 15.5 29 15.3 29.2L14.5 30C14.5 30 14.4 30 14.4 30.1C14.3 30.2 14.1 30.3 14 30.4C13.9 30.5 13.7 30.6 13.6 30.7C12.1 31.5 10.1 31.3 8.8 30.1L8 29.3C8 29.3 7.9 29.2 7.8 29.2C7.6 29.1 7.4 29.2 7.3 29.3L6.9 29.6L6.5 30C4.9 31.5 2.4 31.5 0.8 30L0 29.3V30V30.7Z" fill="#2A76BC"/>
</g>
<defs>
<clipPath id="clip0_2_836">
<rect width="63" height="63" fill="white"/>
</clipPath>
</defs>
</svg>
