<svg width="63" height="63" viewBox="0 0 63 63" fill="none" xmlns="http://www.w3.org/2000/svg">
<path d="M24.3 24.8C25.2 24.8 26.1 24.5 26.8 23.8C28.2 22.4 28.2 20.2 26.8 18.9C25.5 17.6 23.2 17.6 21.9 18.9C21.2 19.6 20.9 20.4 20.9 21.4C20.9 22.3 21.3 23.2 21.9 23.9C22.5 24.4 23.4 24.8 24.3 24.8ZM22.5 19.5C23 19 23.6 18.8 24.3 18.8C25 18.8 25.6 19.1 26.1 19.5C27.1 20.5 27.1 22.1 26.1 23C25.1 24 23.5 24 22.6 23C22.1 22.5 21.9 21.9 21.9 21.2C21.8 20.6 22 20 22.5 19.5Z" fill="black"/>
<path d="M38.8 9.5C39.3 9.5 39.8 9.3 40.2 8.9C41 8.1 41 6.9 40.2 6.1C39.4 5.3 38.1 5.3 37.4 6.1C36.6 6.9 36.6 8.1 37.4 8.9C37.7 9.3 38.2 9.5 38.8 9.5ZM38.1 6.8C38.3 6.6 38.5 6.5 38.8 6.5C39.1 6.5 39.3 6.6 39.5 6.8C39.9 7.2 39.9 7.8 39.5 8.2C39.1 8.6 38.5 8.6 38.1 8.2C37.7 7.8 37.7 7.2 38.1 6.8Z" fill="#FCB019"/>
<path d="M15.6 26.6V22.5C17.6 22.2 19.1 20.1 19.1 17.6C19.1 14.8 17.3 12.6 15.1 12.6C12.9 12.6 11.1 14.8 11.1 17.6C11.1 20.1 12.6 22.2 14.6 22.5V26.6C14.8 26.6 14.9 26.5 15.1 26.5C15.3 26.5 15.4 26.6 15.6 26.6ZM12.1 17.6C12.1 15.4 13.4 13.6 15.1 13.6C16.8 13.6 18.1 15.4 18.1 17.6C18.1 19.8 16.8 21.6 15.1 21.6C13.4 21.6 12.1 19.8 12.1 17.6Z" fill="#EE2B2F"/>
<path d="M15.6 31.7V31.5C15.5 31.5 15.5 31.5 15.4 31.5C15.3 31.5 15.2 31.5 15.1 31.5C14.9 31.5 14.8 31.5 14.6 31.4V32V33C14.6 33.3 14.8 33.5 15.1 33.5C15.4 33.5 15.6 33.3 15.6 33V31.7Z" fill="#EE2B2F"/>
<path d="M40.9 31.5L34.2 24.8L45.2 13.8C45.7 13.3 45.9 12.7 45.9 12C45.9 11.3 45.6 10.7 45.2 10.2C44.3 9.29999 42.6 9.29999 41.7 10.2L20.8 31.2L16.9 27.3C16.9 27.3 16.8 27.3 16.8 27.2C16.5 26.9 16.1 26.7 15.6 26.6C15.4 26.6 15.3 26.5 15.1 26.5C14.9 26.5 14.8 26.5 14.6 26.6C14.1 26.7 13.7 26.9 13.4 27.2C13.4 27.2 13.4 27.2 13.3 27.3C13.1 27.5 12.9 27.8 12.8 28.1C12.7 28.2 12.7 28.4 12.7 28.5V28.6C12.7 28.8 12.6 28.9 12.6 29.1C12.6 29.3 12.6 29.4 12.7 29.6V29.7C12.7 29.8 12.8 30 12.8 30.1C12.9 30.3 13 30.4 13.1 30.6L13.2 30.7C13.3 30.8 13.3 30.8 13.4 30.9L14.7 32.2V31.6C14.9 31.6 15 31.7 15.2 31.7C15.3 31.7 15.4 31.7 15.5 31.7C15.6 31.7 15.6 31.7 15.7 31.7C16.7 31.5 17.5 30.6 17.7 29.6L20.5 32.4C20.7 32.6 21 32.6 21.2 32.4L42.3 11C42.9 10.4 43.9 10.4 44.4 11C44.7 11.3 44.8 11.7 44.8 12.1C44.8 12.5 44.6 12.9 44.4 13.2L33.1 24.5C32.9 24.7 32.9 25 33.1 25.2L39.8 31.9L34.9 36.8L28.2 30.1C28.1 30 27.9 30 27.8 30C27.7 30 27.5 30 27.4 30.1L21.7 35.8C21.1 36.4 20.2 36.4 19.6 35.8L15.5 31.7V33.1L18.9 36.5C19.9 37.5 21.5 37.5 22.4 36.5L27.7 31.2L34.4 37.9L35.1 38.6V46.5L28.8 52.8C27.8 53.8 27.8 55.4 28.8 56.3C29.3 56.8 29.9 57 30.6 57C31.3 57 31.9 56.8 32.4 56.3L39.5 49.2C40 48.7 40.2 48.1 40.2 47.4V38.4L40.5 38.1L45.1 42.7V51.6C45.1 52.9 46 54 47.2 54.2C47.9 54.3 48.7 54.1 49.2 53.6C49.8 53.1 50.1 52.4 50.1 51.7V41.7C50.1 41 49.8 40.4 49.4 39.9L40.9 31.5ZM15.6 30.5C15.4 30.6 15.3 30.6 15.1 30.6C14.9 30.6 14.8 30.6 14.6 30.5C14.3 30.4 14 30.2 13.9 29.9C13.9 29.8 13.8 29.8 13.8 29.7C13.8 29.6 13.7 29.6 13.7 29.5C13.7 29.5 13.7 29.5 13.7 29.4C13.7 29.3 13.7 29.2 13.7 29.1C13.7 29 13.7 28.9 13.7 28.8C13.7 28.8 13.7 28.8 13.7 28.7C13.7 28.6 13.7 28.5 13.8 28.5C13.8 28.4 13.9 28.3 13.9 28.3C14 28.2 14 28.2 14.1 28.1C14.3 27.9 14.4 27.8 14.7 27.8C14.9 27.7 15 27.7 15.2 27.7C15.4 27.7 15.5 27.7 15.7 27.8C15.9 27.9 16.1 28 16.3 28.1C16.6 28.4 16.7 28.7 16.7 29.2C16.6 29.7 16.2 30.3 15.6 30.5ZM49.1 51.8C49.1 52.2 48.9 52.7 48.6 52.9C48.3 53.2 47.8 53.3 47.4 53.2C46.7 53.1 46.2 52.4 46.2 51.6V42.5C46.2 42.4 46.1 42.2 46.1 42.1L41 37C40.8 36.8 40.5 36.8 40.3 37L39.4 38C39.3 38.1 39.3 38.2 39.3 38.4V47.6C39.3 48 39.1 48.4 38.9 48.7L31.8 55.8C31.2 56.4 30.3 56.4 29.7 55.8C29.1 55.2 29.1 54.3 29.7 53.7L36.2 47.2C36.3 47.1 36.3 47 36.3 46.8V38.5C36.3 38.4 36.2 38.2 36.2 38.1L35.7 37.6L40.6 32.7L48.7 40.8C49 41.1 49.1 41.5 49.1 41.9V51.8Z" fill="black"/>
</svg>
