<svg width="63" height="63" viewBox="0 0 63 63" fill="none" xmlns="http://www.w3.org/2000/svg">
<path d="M45.3 15.1C44.7 14.8 44 14.8 43.4 15.1L28.6 21.2L23.5 23.3L21.4 18.2C21.1 17.6 20.7 17.1 20 16.8C19.4 16.5 18.7 16.5 18.1 16.8C17.5 17.1 17 17.5 16.7 18.2C16.4 18.8 16.4 19.5 16.7 20.1L19.8 27.5C20.2 28.5 21.1 29 22.1 29C22.4 29 22.7 28.9 23.1 28.8L27.2 27.1L30.8 35.9L31.6 37.7L29.1 43.7L21 47.2C19.8 47.7 19.1 49.1 19.5 50.3C19.7 51 20.2 51.5 20.8 51.8C21.1 52 21.5 52 21.9 52C22.2 52 22.6 51.9 22.9 51.8L32 48C32.6 47.7 33.1 47.3 33.4 46.6L34.9 42.9L36 45.6L32.6 54C32.3 54.6 32.3 55.3 32.6 55.9C32.9 56.5 33.3 57 34 57.3C34.3 57.4 34.6 57.5 35 57.5C35.3 57.5 35.6 57.4 35.9 57.3C36.5 57 37 56.6 37.3 55.9L41.1 46.7C41.4 46.1 41.4 45.4 41.1 44.8L37.6 36.4C37.9 35.4 37.8 34.3 37.4 33.3L33.8 24.5L45.4 19.7C46 19.4 46.5 19 46.8 18.3C47.1 17.7 47.1 17 46.8 16.4C46.4 15.9 45.9 15.4 45.3 15.1ZM40.1 46.3L36.3 55.5C36.1 55.9 35.9 56.2 35.5 56.3C35.1 56.5 34.7 56.4 34.4 56.3C34 56.1 33.7 55.9 33.6 55.5C33.4 55.1 33.5 54.7 33.6 54.4L37.1 45.9C37.2 45.8 37.2 45.6 37.1 45.5L35.5 41.7L37.1 37.8L40.1 45.2C40.3 45.5 40.3 45.9 40.1 46.3ZM32.5 46.3C32.3 46.7 32.1 47 31.7 47.1L22.4 51C22 51.2 21.6 51.2 21.2 51C20.8 50.8 20.5 50.5 20.4 50.1C20.2 49.4 20.6 48.6 21.4 48.2L29.8 44.7C29.9 44.6 30 44.6 30.1 44.4L32.8 38C32.9 37.9 32.8 37.6 32.7 37.5L32 36.1L32.5 35.9L33.1 35.6L34.3 35.1L35.5 34.6L36.1 34.3L36.5 34.1C36.6 34.3 36.6 34.5 36.6 34.7C36.6 35 36.6 35.3 36.6 35.6C36.6 35.9 36.5 36.2 36.4 36.4C36.4 36.5 36.4 36.5 36.3 36.6L34.8 40.3L34.5 41L34.2 41.7L32.5 46.3ZM34 34.2L31.7 35.2L28.3 26.9L29.7 26.3C29.8 26.3 29.9 26.2 29.9 26.1C30 26 30 25.8 29.9 25.7C29.9 25.7 29.9 25.7 29.9 25.6C29.8 25.4 29.6 25.3 29.4 25.4H29.3L29 25.5L28.4 25.8L27.9 26L27.4 26.2L26.9 26.4L22.7 28C22.3 28.1 22 28.1 21.6 28C21.2 27.8 20.9 27.6 20.8 27.2L17.7 19.8C17.5 19.4 17.5 19 17.7 18.7C17.9 18.3 18.1 18 18.5 17.9C18.9 17.7 19.3 17.7 19.6 17.9C20 18.1 20.3 18.3 20.4 18.7L22.7 24.2C22.8 24.3 22.8 24.4 23 24.5C23.1 24.6 23.3 24.6 23.4 24.5L26.7 23.1L27.1 22.9L27.4 22.8L27.7 22.7L28.8 22.2C28.8 22.2 28.9 22.2 28.9 22.1C30.2 21.6 31.6 22.2 32.2 23.5L32.4 24L32.6 24.5L32.8 25L36.2 33.3L34 34.2ZM33.2 23.2C32.8 22.3 32.1 21.6 31.3 21.3L43.8 16.1C44 16 44.2 16 44.4 16C44.6 16 44.8 16 45 16.1C45.4 16.3 45.7 16.5 45.8 16.9C46.1 17.7 45.8 18.5 45 18.9L33.4 23.7L33.2 23.2Z" fill="black"/>
<path d="M25.5 20.3C25.9 20.5 26.4 20.6 26.8 20.6C27.3 20.6 27.7 20.5 28.1 20.3C29 19.9 29.6 19.3 30 18.4C30.4 17.5 30.4 16.6 30 15.7C29.3 13.9 27.2 13.1 25.4 13.8C24.5 14.2 23.9 14.8 23.5 15.7C23.1 16.6 23.1 17.5 23.5 18.4C24 19.3 24.7 20 25.5 20.3ZM24.6 16.1C24.9 15.5 25.3 15 26 14.7C26.3 14.6 26.6 14.5 27 14.5C28 14.5 28.9 15.1 29.3 16C29.6 16.6 29.6 17.3 29.3 17.9C29 18.5 28.6 19 27.9 19.3C27.3 19.6 26.6 19.6 26 19.3C25.4 19 24.9 18.6 24.6 17.9C24.3 17.2 24.3 16.8 24.6 16.1Z" fill="black"/>
<path d="M34 13.5C34.9 13.5 35.8 13.1 36.5 12.5C37.2 11.9 37.5 11 37.5 10C37.5 9.1 37.1 8.2 36.5 7.5C35.2 6.2 32.9 6.2 31.6 7.5C30.9 8.2 30.6 9 30.6 10C30.6 10.9 31 11.8 31.6 12.5C32.2 13.2 33 13.5 34 13.5ZM32.2 8.3C32.7 7.8 33.3 7.6 34 7.6C34.7 7.6 35.3 7.9 35.8 8.3C36.3 8.8 36.5 9.4 36.5 10.1C36.5 10.8 36.2 11.4 35.8 11.9C34.9 12.8 33.2 12.8 32.3 11.9C31.8 11.4 31.6 10.8 31.6 10.1C31.5 9.4 31.7 8.7 32.2 8.3Z" fill="#00A64F"/>
</svg>
