<svg width="63" height="63" viewBox="0 0 63 63" fill="none" xmlns="http://www.w3.org/2000/svg">
<path d="M31.7 19.5C33.6 19.5 35.2 17.9 35.2 16C35.2 14.1 33.6 12.5 31.7 12.5C29.8 12.5 28.2 14 28.2 16C28.2 18 29.8 19.5 31.7 19.5ZM34.2 16C34.2 17.4 33.1 18.5 31.7 18.5C30.3 18.5 29.2 17.4 29.2 16C29.2 14.6 30.3 13.5 31.7 13.5C33.1 13.5 34.2 14.6 34.2 16Z" fill="black"/>
<path d="M28.5 21.5H34.9C35 21.5 35.2 21.4 35.3 21.4L44.5 12.2H43.8H43L34.7 20.5H28.8L20.5 12.2H19.8H19L28.2 21.4C28.3 21.4 28.4 21.5 28.5 21.5Z" fill="black"/>
<path d="M3.7 11.1C3.4 11.1 3.2 11.3 3.2 11.6C3.2 11.9 3.4 12.1 3.7 12.1H5.2V11.1H3.7Z" fill="#2A76BC"/>
<path d="M14 11.1H10.3V12.1H14C14 11.9 13.9 11.8 13.9 11.6C13.9 11.5 13.9 11.3 14 11.1Z" fill="#2A76BC"/>
<path d="M49.5 11.1C49.5 11.3 49.6 11.4 49.6 11.6C49.6 11.8 49.6 11.9 49.5 12.1H53.2V11.1H49.5Z" fill="#2A76BC"/>
<path d="M59.7 11.1H58.2V12.1H59.7C60 12.1 60.2 11.9 60.2 11.6C60.2 11.3 60 11.1 59.7 11.1Z" fill="#2A76BC"/>
<path d="M18.9 11.3C18.9 11.4 18.9 11.5 18.9 11.7C18.9 11.8 18.9 11.9 18.9 12C18.9 12.1 18.9 12.1 18.9 12.2H19H19.7H20.4H43H43.7H44.4H44.6C44.6 12.1 44.6 12.1 44.6 12C44.6 11.9 44.6 11.8 44.6 11.7C44.6 11.6 44.6 11.5 44.6 11.3V11.2H44H19.4H18.8C18.9 11.2 18.9 11.2 18.9 11.3Z" fill="#2A76BC"/>
<path d="M58.2 7.60001C58.2 7.30001 58 7.10001 57.7 7.10001H56.2V5.60001C56.2 5.30001 56 5.10001 55.7 5.10001H53.7C53.4 5.10001 53.2 5.30001 53.2 5.60001V11.1V12.1V17.6C53.2 17.9 53.4 18.1 53.7 18.1H55.7C56 18.1 56.2 17.9 56.2 17.6V16.1H57.7C58 16.1 58.2 15.9 58.2 15.6V12.1V11.1V7.60001ZM57.2 11.1V12.1V15.1H56.2V12.1V11.1V8.10001H57.2V11.1ZM55.2 15.6V17.1H54.2V12.1V11.1V6.10001H55.2V7.60001V11.1V12.1V15.6Z" fill="#FCB019"/>
<path d="M10.2 5.60001C10.2 5.30001 10 5.10001 9.7 5.10001H7.7C7.4 5.10001 7.2 5.30001 7.2 5.60001V7.10001H5.7C5.4 7.10001 5.2 7.30001 5.2 7.60001V11.1V12.1V15.6C5.2 15.9 5.4 16.1 5.7 16.1H7.2V17.6C7.2 17.9 7.4 18.1 7.7 18.1H9.7C10 18.1 10.2 17.9 10.2 17.6V12.1V11.1V5.60001ZM9.2 11.1V12.1V17.1H8.2V15.6V12.1V11.1V7.60001V6.10001H9.2V11.1ZM6.2 12.1V11.1V8.10001H7.2V11.1V12.1V15.1H6.2V12.1Z" fill="#FCB019"/>
<path d="M49.5 11.1C49.4 10.6 49.2 10.2 48.8 9.8C47.8 8.8 46.2 8.8 45.3 9.8L44 11.1H44.6V11.2C44.6 11.3 44.6 11.4 44.6 11.6C44.6 11.7 44.6 11.8 44.6 11.9C44.6 12 44.6 12 44.6 12.1C44.7 12.6 44.9 13 45.3 13.4C45.7 13.8 46.2 14 46.7 14.1L35.4 25.4C35.3 25.5 35.3 25.6 35.3 25.8V34.5H28.3V25.8C28.3 25.7 28.2 25.5 28.2 25.4L16.7 14.1C17.2 14 17.7 13.8 18.1 13.4C18.5 13 18.7 12.6 18.8 12.1C18.8 12 18.8 12 18.8 11.9C18.8 11.8 18.8 11.7 18.8 11.6C18.8 11.5 18.8 11.4 18.8 11.2V11.1H19.4L18.1 9.8C17.1 8.8 15.5 8.8 14.6 9.8C14.2 10.2 14 10.6 13.9 11.1C13.9 11.3 13.8 11.4 13.8 11.6C13.8 11.8 13.8 11.9 13.9 12.1C13.9 12.3 14 12.5 14.1 12.7C14.2 12.9 14.4 13.2 14.6 13.4L27.2 26V35V36.5L19.7 54.5C19.2 55.8 19.8 57.2 21.1 57.8C21.4 57.9 21.7 58 22 58C22.3 58 22.7 57.9 23 57.8C23.6 57.5 24.1 57.1 24.3 56.4L31.3 39.5H32L39 56.4C39.3 57 39.7 57.5 40.3 57.8C40.9 58.1 41.6 58.1 42.2 57.8C43.5 57.3 44.1 55.8 43.5 54.5L36 36.5V35V26L48.6 13.4C48.8 13.2 49 13 49.1 12.7C49.2 12.5 49.3 12.3 49.3 12.1C49.3 11.9 49.4 11.8 49.4 11.6C49.5 11.5 49.5 11.3 49.5 11.1ZM46 12.7C45.8 12.5 45.7 12.3 45.7 12.1C45.6 11.9 45.6 11.8 45.6 11.6C45.6 11.4 45.6 11.3 45.7 11.1C45.8 10.9 45.9 10.7 46 10.5C46.1 10.4 46.3 10.3 46.4 10.2C46.5 10.2 46.5 10.2 46.6 10.1C46.7 10.1 46.8 10.1 46.9 10C47.1 10 47.3 10 47.5 10.1C47.7 10.2 47.9 10.3 48.1 10.4C48.2 10.5 48.2 10.6 48.3 10.7C48.4 10.8 48.4 10.9 48.4 11C48.5 11.2 48.5 11.3 48.5 11.5C48.5 11.7 48.5 11.8 48.4 12V12.1C48.3 12.3 48.2 12.4 48.1 12.6C47.5 13.3 46.6 13.3 46 12.7ZM40.8 56.8C40.4 56.6 40.1 56.4 40 56L32.8 38.8C32.7 38.6 32.5 38.5 32.3 38.5H31C30.8 38.5 30.6 38.6 30.5 38.8L23.4 56C23.2 56.4 23 56.7 22.6 56.8C22.2 57 21.8 57 21.5 56.8C20.7 56.5 20.4 55.6 20.7 54.8L28.2 36.7C28.2 36.6 28.2 36.6 28.2 36.5V35.4H35.2V36.5C35.2 36.6 35.2 36.6 35.2 36.7L42.7 54.8C43 55.6 42.7 56.4 41.9 56.8C41.6 57 41.2 57 40.8 56.8ZM17.5 12.7C16.9 13.3 15.9 13.3 15.4 12.7C15.3 12.6 15.1 12.4 15.1 12.2C15.1 12.2 15.1 12.2 15.1 12.1C15 11.9 15 11.8 15 11.6C15 11.4 15 11.3 15.1 11.1C15.1 11 15.2 10.9 15.3 10.8C15.4 10.7 15.4 10.6 15.5 10.6C15.6 10.5 15.8 10.3 16 10.3C16.2 10.2 16.4 10.2 16.6 10.2C16.8 10.2 17 10.2 17.2 10.3C17.4 10.4 17.5 10.5 17.7 10.6C17.9 10.8 18 11 18 11.2C18.1 11.4 18.1 11.5 18.1 11.7C18.1 11.9 18.1 12 18 12.2C17.7 12.3 17.6 12.5 17.5 12.7Z" fill="black"/>
</svg>
